<?xml version="1.0" encoding="UTF-8"?>
<svg id="Layer_3" data-name="Layer 3" xmlns="http://www.w3.org/2000/svg" viewBox="0 0 151.3 73.67">
  <defs>
    <style>
      .cls-1 {
        fill: #ae9dd6;
      }

      .cls-2 {
        fill: #fff;
      }
    </style>
  </defs>
  <g id="Layer_1" data-name="Layer 1">
    <g>
      <path class="cls-2" d="M22.65,0h106c12.51,0,22.65,10.14,22.65,22.65v20.9c0,15.43-15.09,26.34-29.74,21.51l-1.21-.4c-4.64-1.53-9.64-1.52-14.27.03l-23.35,7.81c-4.6,1.54-9.57,1.56-14.18.06l-24.35-7.92c-4.64-1.51-9.65-1.48-14.28.09h0C15.23,69.71,0,58.78,0,43.28v-20.63C0,10.14,10.14,0,22.65,0Z"/>
      <g>
        <path class="cls-1" d="M101.11,26.27v18.64c0,2.46-1.99,4.45-4.45,4.45h-51.48c-2.46,0-4.45-1.99-4.45-4.45h0c0-2.47,1.99-4.46,4.45-4.46h42.58c2.46,0,4.45-1.99,4.45-4.45v-9.73c0-2.46,1.99-4.45,4.45-4.45h0c2.46,0,4.45,1.99,4.45,4.45Z"/>
        <path class="cls-1" d="M78.27,21.18v.59l8.85.03c2.45,0,4.43,2,4.43,4.45v9.11c0,2.46-1.99,4.45-4.45,4.45h-41.92c-2.46,0-4.45-1.99-4.45-4.45v-14.18h-.65v23.73c0,2.46-1.99,4.45-4.45,4.45h-9.54c-2.46,0-4.45-1.99-4.45-4.45v-28.18c0-2.46,1.99-4.45,4.45-4.45h0c2.46,0,4.45,1.99,4.45,4.45v23.72h.64v-23.72c0-2.46,1.99-4.45,4.45-4.45h9.55c2.46,0,4.45,1.99,4.45,4.45v13.95h.64v-13.95c0-2.46,1.99-4.45,4.45-4.45h.01c2.46,0,4.45,1.99,4.45,4.45v13.95h.64v-10.93c0-2.46,1.99-4.45,4.45-4.45h0c2.46,0,4.45,1.99,4.45,4.45v6.48c0,2.46,1.99,4.45,4.45,4.45h4.92v-.55l-4.31-.02c-2.45-.01-4.42-2-4.42-4.45v-8.93c0-2.46,1.99-4.45,4.45-4.45h22.85c2.46,0,4.45,1.99,4.45,4.45h0c0,2.46-1.99,4.45-4.45,4.45h-18.39Z"/>
        <rect class="cls-1" x="64.53" y="12.28" width="4.19" height="2.37" rx="1.19" ry="1.19"/>
        <rect class="cls-1" x="59.82" y="12.28" width="4.19" height="2.37" rx="1.19" ry="1.19"/>
        <path class="cls-1" d="M115.74,12.27c-2.46,0-4.45,1.99-4.45,4.45v23.74h-.62v-23.74c0-2.46-1.99-4.45-4.45-4.45h0c-2.46,0-4.45,1.99-4.45,4.45v28.19c0,2.46,1.99,4.45,4.45,4.45h18.99c2.46,0,4.45-1.99,4.45-4.45v-28.19c0-2.46-1.99-4.45-4.45-4.45h-9.47ZM120.76,40.46h-.64v-19.29h.64v19.29Z"/>
      </g>
    </g>
  </g>
</svg>