<?xml version="1.0" encoding="UTF-8"?>
<svg id="Layer_2" data-name="Layer 2" xmlns="http://www.w3.org/2000/svg" viewBox="0 0 108.02 37.09">
  <defs>
    <style>
      .cls-1 {
        fill: #fff;
      }
    </style>
  </defs>
  <g id="Layer_1" data-name="Layer 1">
    <g>
      <path class="cls-1" d="M79.47,14v18.64c0,2.46-1.99,4.45-4.45,4.45H23.54c-2.46,0-4.45-1.99-4.45-4.45h0c0-2.47,1.99-4.46,4.45-4.46h42.58c2.46,0,4.45-1.99,4.45-4.45v-9.73c0-2.46,1.99-4.45,4.45-4.45h0c2.46,0,4.45,1.99,4.45,4.45Z"/>
      <path class="cls-1" d="M56.63,8.91v.59l8.85.03c2.45,0,4.43,2,4.43,4.45v9.11c0,2.46-1.99,4.45-4.45,4.45H23.54c-2.46,0-4.45-1.99-4.45-4.45v-14.18h-.65v23.73c0,2.46-1.99,4.45-4.45,4.45H4.45c-2.46,0-4.45-1.99-4.45-4.45V4.46C0,2.01,1.99.01,4.45.01h0C6.91.01,8.9,2.01,8.9,4.46v23.72h.64V4.46C9.54,2.01,11.53.01,13.99.01h9.55c2.46,0,4.45,1.99,4.45,4.45v13.95h.64V4.46C28.63,2.01,30.62.01,33.08.01h.01c2.46,0,4.45,1.99,4.45,4.45v13.95h.64V7.48c0-2.46,1.99-4.45,4.45-4.45h0c2.46,0,4.45,1.99,4.45,4.45v6.48c0,2.46,1.99,4.45,4.45,4.45h4.92v-.55l-4.31-.02c-2.45-.01-4.42-2-4.42-4.45V4.46C47.72,2.01,49.71.01,52.17.01h22.85c2.46,0,4.45,1.99,4.45,4.45h0c0,2.46-1.99,4.45-4.45,4.45h-18.39Z"/>
      <rect class="cls-1" x="42.89" y=".01" width="4.19" height="2.37" rx="1.19" ry="1.19"/>
      <rect class="cls-1" x="38.18" y=".01" width="4.19" height="2.37" rx="1.19" ry="1.19"/>
      <path class="cls-1" d="M94.1,0c-2.46,0-4.45,1.99-4.45,4.45v23.74h-.62V4.45c0-2.46-1.99-4.45-4.45-4.45h0c-2.46,0-4.45,1.99-4.45,4.45v28.19c0,2.46,1.99,4.45,4.45,4.45h18.99c2.46,0,4.45-1.99,4.45-4.45V4.45c0-2.46-1.99-4.45-4.45-4.45h-9.47ZM99.12,28.19h-.64V8.9h.64v19.29Z"/>
    </g>
  </g>
</svg>